<svg xmlns="http://www.w3.org/2000/svg" viewBox="0 0 630 430" class="svg-logo img-fluid" width="630" height="430">
    <g data-element="wrapper">
        <g>
            <g data-element="icon" transform="scale(0.16963323898527444) translate(403.6777602513631 967.442170108565)">
                <path id="color_x5F_2_12_" d="M516.277,174.628c4.037-6.024,7.889-11.013,11.121-14.874c42.402-2.341,37.728-48.944,37.728-48.944    c-37.84-1.197-43.357,27.785-43.177,40.238c-4.266,4.846-9.814,11.782-15.583,20.673c-1.146-19.06-15.603-30.121-15.603-30.121    c-14.246,24.717-2.8,41.301,4.933,48.777c-8.847,17.729-16.567,40.111-18.944,66.671c-0.229,2.569,1.586,4.852,4.104,5.234    c0.1,0.017,0.201,0.03,0.305,0.038c2.674,0.238,5.035-1.734,5.273-4.408c2.252-25.163,9.74-46.528,18.257-63.448    c22.231,8.429,43.843-13.791,43.843-13.791C535.18,170.691,524.358,170.945,516.277,174.628z" fill="#ffffff"></path>
                <path id="color_x5F_1_14_" d="M474.786,195.917c-3.801-1.422-14.483-7.33-14.483-7.33s-7.891-43.783-51.317-38.804    c-23.03,2.646-36.164,27.52-42.804,45.504c-9.379,25.411-20.438,61.873-37.444,98.488c-7.595,7.884-17.025,13.154-27.067,8.117    c-11.279-5.656-10.527-20.99-0.792-41.432c17.923-37.649,28.249-56.748,7.497-75.248c-20.746-18.496-185.439-47.653-246.01-80.806    c-60.572-33.153-16.082,159.22,79.816,128.524c0,0-43.045,34.313-14.961,71.078c24.404,31.941,95.806,20.371,95.806,20.371    s-21.688,29.371-0.28,50.154c9.106,8.842,24.625,13.328,41.66,11.284c-41.904,37.276-101.368,57.121-188.596,33.495    c0,0,7.195,63.772,78.094,77.821c70.894,14.055,102.421-40.517,102.421-40.517s120.173,11.896,166.735-65.708    c48.344-80.573,38.329-176.429,38.329-176.429s10.368-8.876,13.765-11.9C480.478,197.839,476.35,196.504,474.786,195.917z     M414.29,197.445c-4.965,0.042-9.021-3.948-9.062-8.914c-0.042-4.963,3.949-9.021,8.912-9.061c4.965-0.042,9.021,3.949,9.062,8.912    C423.244,193.348,419.254,197.407,414.29,197.445z" fill="#ffffff"></path>
            </g>
            <text transform="translate(178.3671875 238.5)" fill="rgba(255, 255, 255, 1)" font-family="Open Sans" font-size="64" data-element="company-name" dx="0 0 0 0 0 0 0 0 0 0 0">iPetConnect</text>
            <text transform="translate(89 280.5)" fill="rgba(188, 138, 201, 1.0)" font-family="Open Sans" font-size="30" data-element="slogan" dx="0 0 0 0 0 0 0 0 0 0 0 0 0 0 0 0 0 0 0 0 0 0 0 0 0 0 0 0 0 0">Connecting hearts in one swipe</text>
        </g>
    </g>
</svg>